{
  "accessors": [
    {
      "bufferView": 2,
      "componentType": 5126,
      "count": 3423,
      "max": [
        3.3643672466278076,
        6.4043221473693848,
        2.2734055519104004
      ],
      "min": [
        0,
        0,
        0
      ],
      "type": "VEC3"
    },
    {
      "bufferView": 2,
      "byteOffset": 41076,
      "componentType": 5126,
      "count": 3423,
      "max": [
        0.99997913837432861,
        0.96720325946807861,
        0.99570351839065552
      ],
      "min": [
        -0.99997913837432861,
        -0.99937409162521362,
        -0.99979966878890991
      ],
      "type": "VEC3"
    },
    {
      "bufferView": 3,
      "componentType": 5126,
      "count": 3423,
      "max": [
        0.99967187643051147,
        0.44768890738487244,
        0.99063605070114136,
        1
      ],
      "min": [
        -0.99967175722122192,
        -0.9999997615814209,
        -0.99072533845901489,
        -1
      ],
      "type": "VEC4"
    },
    {
      "bufferView": 3,
      "byteOffset": 54768,
      "componentType": 5126,
      "count": 3423,
      "max": [
        1,
        1,
        1,
        1
      ],
      "min": [
        1,
        1,
        1,
        1
      ],
      "type": "VEC4"
    },
    {
      "bufferView": 1,
      "componentType": 5126,
      "count": 3423,
      "max": [
        0.99631720781326294,
        0.99628251791000366
      ],
      "min": [
        0.0075124027207493782,
        0.50049901008605957
      ],
      "type": "VEC2"
    },
    {
      "bufferView": 0,
      "componentType": 5125,
      "count": 18246,
      "max": [
        3422
      ],
      "min": [
        0
      ],
      "type": "SCALAR"
    },
    {
      "bufferView": 2,
      "byteOffset": 82152,
      "componentType": 5126,
      "count": 1038,
      "max": [
        2.3226149082183838,
        1.9958474636077881,
        1.3130055665969849
      ],
      "min": [
        1.0417523384094238,
        0.2760767936706543,
        0.70955741405487061
      ],
      "type": "VEC3"
    },
    {
      "bufferView": 2,
      "byteOffset": 94608,
      "componentType": 5126,
      "count": 1038,
      "max": [
        0.99954473972320557,
        0.99811655282974243,
        0.99584382772445679
      ],
      "min": [
        -0.99954473972320557,
        -0.99811810255050659,
        -0.99957394599914551
      ],
      "type": "VEC3"
    },
    {
      "bufferView": 3,
      "byteOffset": 109536,
      "componentType": 5126,
      "count": 1038,
      "max": [
        1,
        0.94590204954147339,
        0.76402509212493896,
        1
      ],
      "min": [
        -0.99994039535522461,
        -0.99998432397842407,
        -0.99062448740005493,
        -1
      ],
      "type": "VEC4"
    },
    {
      "bufferView": 3,
      "byteOffset": 126144,
      "componentType": 5126,
      "count": 1038,
      "max": [
        1,
        1,
        1,
        1
      ],
      "min": [
        1,
        1,
        1,
        1
      ],
      "type": "VEC4"
    },
    {
      "bufferView": 1,
      "byteOffset": 27384,
      "componentType": 5126,
      "count": 1038,
      "max": [
        0.96940642595291138,
        0.93223059177398682
      ],
      "min": [
        0.01011117547750473,
        0.020566105842590332
      ],
      "type": "VEC2"
    },
    {
      "bufferView": 0,
      "byteOffset": 72984,
      "componentType": 5125,
      "count": 4596,
      "max": [
        1037
      ],
      "min": [
        0
      ],
      "type": "SCALAR"
    }
  ],
  "asset": {
    "extras": {
      "author": "pibraclab (https://sketchfab.com/pibraclab)",
      "license": "CC-BY-4.0 (http://creativecommons.org/licenses/by/4.0/)",
      "source": "https://sketchfab.com/models/f52c11961f6a41188bbbe524c0390f5e",
      "title": "Great White Shark"
    },
    "generator": "Sketchfab-3.17.1",
    "version": "2.0"
  },
  "bufferViews": [
    {
      "buffer": 0,
      "byteLength": 91368,
      "byteOffset": 0,
      "name": "floatBufferViews",
      "target": 34963
    },
    {
      "buffer": 0,
      "byteLength": 35688,
      "byteOffset": 91368,
      "byteStride": 8,
      "name": "floatBufferViews",
      "target": 34962
    },
    {
      "buffer": 0,
      "byteLength": 107064,
      "byteOffset": 127056,
      "byteStride": 12,
      "name": "floatBufferViews",
      "target": 34962
    },
    {
      "buffer": 0,
      "byteLength": 142752,
      "byteOffset": 234120,
      "byteStride": 16,
      "name": "floatBufferViews",
      "target": 34962
    }
  ],
  "buffers": [
    {
      "byteLength": 376872,
      "uri": "scene.bin"
    }
  ],
  "extensionsRequired": [
    "KHR_materials_pbrSpecularGlossiness"
  ],
  "extensionsUsed": [
    "KHR_materials_pbrSpecularGlossiness"
  ],
  "images": [
    {
      "uri": "textures/Material0_diffuse.png"
    },
    {
      "uri": "textures/Material1_diffuse.png"
    }
  ],
  "materials": [
    {
      "doubleSided": true,
      "emissiveFactor": [
        0,
        0,
        0
      ],
      "extensions": {
        "KHR_materials_pbrSpecularGlossiness": {
          "diffuseFactor": [
            1,
            1,
            1,
            1
          ],
          "diffuseTexture": {
            "index": 0,
            "texCoord": 0
          },
          "glossinessFactor": 0.40000000000000002,
          "specularFactor": [
            0,
            0,
            0
          ]
        }
      },
      "name": "Material0"
    },
    {
      "doubleSided": true,
      "emissiveFactor": [
        0,
        0,
        0
      ],
      "extensions": {
        "KHR_materials_pbrSpecularGlossiness": {
          "diffuseFactor": [
            1,
            1,
            1,
            1
          ],
          "diffuseTexture": {
            "index": 1,
            "texCoord": 0
          },
          "glossinessFactor": 0.40000000000000002,
          "specularFactor": [
            0,
            0,
            0
          ]
        }
      },
      "name": "Material1"
    }
  ],
  "meshes": [
    {
      "primitives": [
        {
          "attributes": {
            "COLOR_0": 3,
            "NORMAL": 1,
            "POSITION": 0,
            "TANGENT": 2,
            "TEXCOORD_0": 4
          },
          "indices": 5,
          "material": 0,
          "mode": 4
        }
      ]
    },
    {
      "primitives": [
        {
          "attributes": {
            "COLOR_0": 9,
            "NORMAL": 7,
            "POSITION": 6,
            "TANGENT": 8,
            "TEXCOORD_0": 10
          },
          "indices": 11,
          "material": 1,
          "mode": 4
        }
      ]
    }
  ],
  "nodes": [
    {
      "children": [
        1
      ],
      "name": "RootNode (gltf orientation matrix)",
      "rotation": [
        -0.70710678118654746,
        -0,
        -0,
        0.70710678118654757
      ]
    },
    {
      "children": [
        2
      ],
      "name": "RootNode (model correction matrix)"
    },
    {
      "children": [
        3
      ],
      "matrix": [
        1,
        0,
        0,
        0,
        0,
        1,
        0,
        0,
        0,
        0,
        1,
        0,
        -1.6821836233139038,
        -3.1979484558105469,
        -1.097901463508606,
        1
      ],
      "name": "GWS.3ds.cleaner.gles"
    },
    {
      "children": [
        4,
        5
      ],
      "name": "/sketchfab-data/processing/e7c87e5a57044580b25e98b38060d358/preprocess/GWS.3ds"
    },
    {
      "mesh": 0,
      "name": ""
    },
    {
      "mesh": 1,
      "name": ""
    }
  ],
  "samplers": [
    {
      "magFilter": 9729,
      "minFilter": 9987,
      "wrapS": 10497,
      "wrapT": 10497
    }
  ],
  "scene": 0,
  "scenes": [
    {
      "name": "OSG_Scene",
      "nodes": [
        0
      ]
    }
  ],
  "textures": [
    {
      "sampler": 0,
      "source": 0
    },
    {
      "sampler": 0,
      "source": 1
    }
  ]
}

