{
  "accessors": [
    {
      "bufferView": 2,
      "componentType": 5126,
      "count": 65532,
      "max": [
        20479.99609375,
        2622.12841796875,
        15207.421875
      ],
      "min": [
        0,
        154.746337890625,
        0
      ],
      "type": "VEC3"
    },
    {
      "bufferView": 2,
      "byteOffset": 786384,
      "componentType": 5126,
      "count": 65532,
      "max": [
        0.97520911693572998,
        -0.08602701872587204,
        0.95610707998275757
      ],
      "min": [
        -0.99284809827804565,
        -1,
        -0.95309442281723022
      ],
      "type": "VEC3"
    },
    {
      "bufferView": 3,
      "componentType": 5126,
      "count": 65532,
      "max": [
        1,
        0.98690366744995117,
        0.19014081358909607,
        1
      ],
      "min": [
        0.088260576128959656,
        -0.9960973858833313,
        -0.21688386797904968,
        1
      ],
      "type": "VEC4"
    },
    {
      "bufferView": 1,
      "componentType": 5126,
      "count": 65532,
      "max": [
        1,
        0.74255001544952393
      ],
      "min": [
        0,
        0
      ],
      "type": "VEC2"
    },
    {
      "bufferView": 0,
      "componentType": 5125,
      "count": 378693,
      "max": [
        65531
      ],
      "min": [
        0
      ],
      "type": "SCALAR"
    },
    {
      "bufferView": 2,
      "byteOffset": 1572768,
      "componentType": 5126,
      "count": 65532,
      "max": [
        20479.99609375,
        2622.12841796875,
        20479.99609375
      ],
      "min": [
        0,
        96.5341796875,
        3841.875
      ],
      "type": "VEC3"
    },
    {
      "bufferView": 2,
      "byteOffset": 2359152,
      "componentType": 5126,
      "count": 65532,
      "max": [
        0.99611955881118774,
        -0.053021769970655441,
        0.99669015407562256
      ],
      "min": [
        -0.99569636583328247,
        -1,
        -0.98386973142623901
      ],
      "type": "VEC3"
    },
    {
      "bufferView": 3,
      "byteOffset": 1048512,
      "componentType": 5126,
      "count": 65532,
      "max": [
        1,
        0.99619925022125244,
        0.26531502604484558,
        1
      ],
      "min": [
        0.073852062225341797,
        -0.99726897478103638,
        -0.49391502141952515,
        1
      ],
      "type": "VEC4"
    },
    {
      "bufferView": 1,
      "byteOffset": 524256,
      "componentType": 5126,
      "count": 65532,
      "max": [
        1,
        1
      ],
      "min": [
        0,
        0.18759199976921082
      ],
      "type": "VEC2"
    },
    {
      "bufferView": 0,
      "byteOffset": 1514772,
      "componentType": 5125,
      "count": 358884,
      "max": [
        65531
      ],
      "min": [
        0
      ],
      "type": "SCALAR"
    },
    {
      "bufferView": 2,
      "byteOffset": 3145536,
      "componentType": 5126,
      "count": 43507,
      "max": [
        20479.99609375,
        2622.12841796875,
        20479.99609375
      ],
      "min": [
        10.0048828125,
        0,
        10245
      ],
      "type": "VEC3"
    },
    {
      "bufferView": 2,
      "byteOffset": 3667620,
      "componentType": 5126,
      "count": 43507,
      "max": [
        0.9832192063331604,
        -0.070991374552249908,
        0.99523389339447021
      ],
      "min": [
        -0.94900906085968018,
        -1,
        -0.96350586414337158
      ],
      "type": "VEC3"
    },
    {
      "bufferView": 3,
      "byteOffset": 2097024,
      "componentType": 5126,
      "count": 43507,
      "max": [
        1,
        0.98540294170379639,
        0.22328376770019531,
        1
      ],
      "min": [
        0.16145479679107666,
        -0.98687988519668579,
        -0.52025467157363892,
        1
      ],
      "type": "VEC4"
    },
    {
      "bufferView": 1,
      "byteOffset": 1048512,
      "componentType": 5126,
      "count": 43507,
      "max": [
        1,
        1
      ],
      "min": [
        0.0004889999981969595,
        0.50024402141571045
      ],
      "type": "VEC2"
    },
    {
      "bufferView": 0,
      "byteOffset": 2950308,
      "componentType": 5125,
      "count": 243384,
      "max": [
        43506
      ],
      "min": [
        0
      ],
      "type": "SCALAR"
    }
  ],
  "asset": {
    "extras": {
      "author": "juhyt80 (https://sketchfab.com/juhyt80)",
      "license": "CC-BY-NC-4.0 (http://creativecommons.org/licenses/by-nc/4.0/)",
      "source": "https://sketchfab.com/models/66bec53f049c4aaf8cf39c3cd55396bd",
      "title": "Mountains Epic Terrain (2K, optimized, baked)"
    },
    "generator": "Sketchfab-3.42.2",
    "version": "2.0"
  },
  "bufferViews": [
    {
      "buffer": 0,
      "byteLength": 3923844,
      "byteOffset": 0,
      "name": "floatBufferViews",
      "target": 34963
    },
    {
      "buffer": 0,
      "byteLength": 1396568,
      "byteOffset": 3923844,
      "byteStride": 8,
      "name": "floatBufferViews",
      "target": 34962
    },
    {
      "buffer": 0,
      "byteLength": 4189704,
      "byteOffset": 5320412,
      "byteStride": 12,
      "name": "floatBufferViews",
      "target": 34962
    },
    {
      "buffer": 0,
      "byteLength": 2793136,
      "byteOffset": 9510116,
      "byteStride": 16,
      "name": "floatBufferViews",
      "target": 34962
    }
  ],
  "buffers": [
    {
      "byteLength": 12303252,
      "uri": "scene.bin"
    }
  ],
  "images": [
    {
      "uri": "textures/terrain_mtl_baseColor.png"
    }
  ],
  "materials": [
    {
      "doubleSided": true,
      "name": "terrain_mtl",
      "pbrMetallicRoughness": {
        "baseColorFactor": [
          1,
          1,
          1,
          1
        ],
        "baseColorTexture": {
          "index": 0,
          "texCoord": 0
        },
        "metallicFactor": 0,
        "roughnessFactor": 0.59999999999999998
      }
    }
  ],
  "meshes": [
    {
      "primitives": [
        {
          "attributes": {
            "NORMAL": 1,
            "POSITION": 0,
            "TANGENT": 2,
            "TEXCOORD_0": 3
          },
          "indices": 4,
          "material": 0,
          "mode": 4
        }
      ]
    },
    {
      "primitives": [
        {
          "attributes": {
            "NORMAL": 6,
            "POSITION": 5,
            "TANGENT": 7,
            "TEXCOORD_0": 8
          },
          "indices": 9,
          "material": 0,
          "mode": 4
        }
      ]
    },
    {
      "primitives": [
        {
          "attributes": {
            "NORMAL": 11,
            "POSITION": 10,
            "TANGENT": 12,
            "TEXCOORD_0": 13
          },
          "indices": 14,
          "material": 0,
          "mode": 4
        }
      ]
    }
  ],
  "nodes": [
    {
      "children": [
        1
      ],
      "name": "RootNode (gltf orientation matrix)",
      "rotation": [
        -0.70710678118654746,
        -0,
        -0,
        0.70710678118654757
      ]
    },
    {
      "children": [
        2
      ],
      "matrix": [
        1,
        0,
        0,
        0,
        0,
        0,
        -1,
        0,
        0,
        1,
        0,
        0,
        0,
        -1306.058837890625,
        -1316.0728759765625,
        1
      ],
      "name": "RootNode (model correction matrix)"
    },
    {
      "children": [
        3
      ],
      "matrix": [
        1,
        0,
        0,
        0,
        0,
        1,
        0,
        0,
        0,
        0,
        1,
        0,
        -10245,
        -2622.12841796875,
        -10245,
        1
      ],
      "name": "skfb_offset"
    },
    {
      "children": [
        4,
        5,
        6
      ],
      "name": ""
    },
    {
      "mesh": 0,
      "name": ""
    },
    {
      "mesh": 1,
      "name": ""
    },
    {
      "mesh": 2,
      "name": ""
    }
  ],
  "samplers": [
    {
      "magFilter": 9729,
      "minFilter": 9987,
      "wrapS": 10497,
      "wrapT": 10497
    }
  ],
  "scene": 0,
  "scenes": [
    {
      "name": "OSG_Scene",
      "nodes": [
        0
      ]
    }
  ],
  "textures": [
    {
      "sampler": 0,
      "source": 0
    }
  ]
}

