{
  "accessors": [
    {
      "bufferView": 2,
      "componentType": 5126,
      "count": 163,
      "max": [
        35.370334625244141,
        28.232702255249023,
        121.83316040039062
      ],
      "min": [
        -35.370334625244141,
        -29.469989776611328,
        -76.904525756835938
      ],
      "type": "VEC3"
    },
    {
      "bufferView": 2,
      "byteOffset": 1956,
      "componentType": 5126,
      "count": 163,
      "max": [
        0.99650532007217407,
        0.99518817663192749,
        0.90715485811233521
      ],
      "min": [
        -0.99650532007217407,
        -0.97184234857559204,
        -0.92486047744750977
      ],
      "type": "VEC3"
    },
    {
      "bufferView": 3,
      "componentType": 5126,
      "count": 163,
      "max": [
        0.96904164552688599,
        0.95883339643478394,
        0.80136984586715698,
        1
      ],
      "min": [
        -0.90157699584960938,
        -0.99030005931854248,
        -0.97936874628067017,
        -1
      ],
      "type": "VEC4"
    },
    {
      "bufferView": 1,
      "componentType": 5126,
      "count": 163,
      "max": [
        0.71434807777404785,
        0.74689900875091553
      ],
      "min": [
        0,
        0
      ],
      "type": "VEC2"
    },
    {
      "bufferView": 0,
      "componentType": 5125,
      "count": 834,
      "max": [
        162
      ],
      "min": [
        0
      ],
      "type": "SCALAR"
    },
    {
      "bufferView": 2,
      "byteOffset": 3912,
      "componentType": 5126,
      "count": 102,
      "max": [
        35.370334625244141,
        -2.6129405498504639,
        101.98805999755859
      ],
      "min": [
        -35.370334625244141,
        -29.919981002807617,
        -72.920944213867188
      ],
      "type": "VEC3"
    },
    {
      "bufferView": 2,
      "byteOffset": 5136,
      "componentType": 5126,
      "count": 102,
      "max": [
        0.99602240324020386,
        0.65869385004043579,
        0.80183660984039307
      ],
      "min": [
        -0.99338269233703613,
        -0.99954831600189209,
        -0.99445569515228271
      ],
      "type": "VEC3"
    },
    {
      "bufferView": 3,
      "byteOffset": 2608,
      "componentType": 5126,
      "count": 102,
      "max": [
        0.16925825178623199,
        0.97868961095809937,
        0.75398218631744385,
        1
      ],
      "min": [
        -0.99999797344207764,
        -0.90140855312347412,
        -0.78820061683654785,
        -1
      ],
      "type": "VEC4"
    },
    {
      "bufferView": 1,
      "byteOffset": 1304,
      "componentType": 5126,
      "count": 102,
      "max": [
        0.99999517202377319,
        1
      ],
      "min": [
        0.53933912515640259,
        0
      ],
      "type": "VEC2"
    },
    {
      "bufferView": 0,
      "byteOffset": 3336,
      "componentType": 5125,
      "count": 450,
      "max": [
        101
      ],
      "min": [
        0
      ],
      "type": "SCALAR"
    },
    {
      "bufferView": 2,
      "byteOffset": 6360,
      "componentType": 5126,
      "count": 21,
      "max": [
        11.772215843200684,
        1.154102087020874,
        -38.02618408203125
      ],
      "min": [
        -11.772215843200684,
        -10.993056297302246,
        -63.487739562988281
      ],
      "type": "VEC3"
    },
    {
      "bufferView": 2,
      "byteOffset": 6612,
      "componentType": 5126,
      "count": 21,
      "max": [
        0.72627496719360352,
        0.87532722949981689,
        0.33006736636161804
      ],
      "min": [
        -0.72627496719360352,
        -0.99928486347198486,
        -0.99366295337677002
      ],
      "type": "VEC3"
    },
    {
      "bufferView": 3,
      "byteOffset": 4240,
      "componentType": 5126,
      "count": 21,
      "max": [
        -0.642433762550354,
        0.32462078332901001,
        0.72472530603408813,
        1
      ],
      "min": [
        -0.99980723857879639,
        -0.33180069923400879,
        -0.72187989950180054,
        1
      ],
      "type": "VEC4"
    },
    {
      "bufferView": 1,
      "byteOffset": 2120,
      "componentType": 5126,
      "count": 21,
      "max": [
        0.82933205366134644,
        0.95209825038909912
      ],
      "min": [
        0.70997202396392822,
        0.81351011991500854
      ],
      "type": "VEC2"
    },
    {
      "bufferView": 0,
      "byteOffset": 5136,
      "componentType": 5125,
      "count": 96,
      "max": [
        20
      ],
      "min": [
        0
      ],
      "type": "SCALAR"
    },
    {
      "bufferView": 2,
      "byteOffset": 6864,
      "componentType": 5126,
      "count": 547,
      "max": [
        11.504693984985352,
        -3.8102953433990479,
        -52.514442443847656
      ],
      "min": [
        -11.504693984985352,
        -7.155217170715332,
        -66.746078491210938
      ],
      "type": "VEC3"
    },
    {
      "bufferView": 2,
      "byteOffset": 13428,
      "componentType": 5126,
      "count": 547,
      "max": [
        0.99907302856445312,
        0.73916423320770264,
        0.99625933170318604
      ],
      "min": [
        -0.99907302856445312,
        -0.91859149932861328,
        -0.93628114461898804
      ],
      "type": "VEC3"
    },
    {
      "bufferView": 3,
      "byteOffset": 4576,
      "componentType": 5126,
      "count": 547,
      "max": [
        0.98688167333602905,
        0.99943912029266357,
        0.99194645881652832,
        1
      ],
      "min": [
        -0.9435347318649292,
        -0.99964910745620728,
        -0.99194645881652832,
        -1
      ],
      "type": "VEC4"
    },
    {
      "bufferView": 1,
      "byteOffset": 2288,
      "componentType": 5126,
      "count": 547,
      "max": [
        0.91557979583740234,
        0.99800801277160645
      ],
      "min": [
        0.0018275046022608876,
        0.0019920319318771362
      ],
      "type": "VEC2"
    },
    {
      "bufferView": 0,
      "byteOffset": 5520,
      "componentType": 5125,
      "count": 1740,
      "max": [
        546
      ],
      "min": [
        0
      ],
      "type": "SCALAR"
    },
    {
      "bufferView": 2,
      "byteOffset": 19992,
      "componentType": 5126,
      "count": 547,
      "max": [
        11.504693984985352,
        -3.8102953433990479,
        -52.514442443847656
      ],
      "min": [
        -11.504693984985352,
        -7.155217170715332,
        -66.746078491210938
      ],
      "type": "VEC3"
    },
    {
      "bufferView": 2,
      "byteOffset": 26556,
      "componentType": 5126,
      "count": 547,
      "max": [
        0.99907302856445312,
        0.73916423320770264,
        0.99625933170318604
      ],
      "min": [
        -0.99907302856445312,
        -0.91859149932861328,
        -0.93628114461898804
      ],
      "type": "VEC3"
    },
    {
      "bufferView": 3,
      "byteOffset": 13328,
      "componentType": 5126,
      "count": 547,
      "max": [
        0.98688167333602905,
        0.99943912029266357,
        0.99194645881652832,
        1
      ],
      "min": [
        -0.9435347318649292,
        -0.99964910745620728,
        -0.99194645881652832,
        -1
      ],
      "type": "VEC4"
    },
    {
      "bufferView": 1,
      "byteOffset": 6664,
      "componentType": 5126,
      "count": 547,
      "max": [
        0.91557979583740234,
        0.99800801277160645
      ],
      "min": [
        0.0018275046022608876,
        0.0019920319318771362
      ],
      "type": "VEC2"
    },
    {
      "bufferView": 0,
      "byteOffset": 12480,
      "componentType": 5125,
      "count": 1740,
      "max": [
        546
      ],
      "min": [
        0
      ],
      "type": "SCALAR"
    },
    {
      "bufferView": 2,
      "byteOffset": 33120,
      "componentType": 5126,
      "count": 200,
      "max": [
        8.857457160949707,
        -6.9378418922424316,
        -46.346046447753906
      ],
      "min": [
        -8.6983718872070312,
        -12.246451377868652,
        -50.733707427978516
      ],
      "type": "VEC3"
    },
    {
      "bufferView": 2,
      "byteOffset": 35520,
      "componentType": 5126,
      "count": 200,
      "max": [
        0.9033123254776001,
        0.998008131980896,
        0.99479061365127563
      ],
      "min": [
        -0.89949655532836914,
        -0.9232933521270752,
        -0.99221605062484741
      ],
      "type": "VEC3"
    },
    {
      "bufferView": 3,
      "byteOffset": 22080,
      "componentType": 5126,
      "count": 200,
      "max": [
        0.99999493360519409,
        0.9992300271987915,
        0.93724197149276733,
        1
      ],
      "min": [
        -0.97393989562988281,
        -0.99999415874481201,
        -0.99044632911682129,
        -1
      ],
      "type": "VEC4"
    },
    {
      "bufferView": 1,
      "byteOffset": 11040,
      "componentType": 5126,
      "count": 200,
      "max": [
        0.99800801277160645,
        0.79156839847564697
      ],
      "min": [
        0.0019920319318771362,
        0.0018869807245209813
      ],
      "type": "VEC2"
    },
    {
      "bufferView": 0,
      "byteOffset": 19440,
      "componentType": 5125,
      "count": 720,
      "max": [
        199
      ],
      "min": [
        0
      ],
      "type": "SCALAR"
    },
    {
      "bufferView": 2,
      "byteOffset": 37920,
      "componentType": 5126,
      "count": 152,
      "max": [
        6.2766032218933105,
        -7.5092554092407227,
        -46.992813110351562
      ],
      "min": [
        -6.3142657279968262,
        -11.981307029724121,
        -50.055702209472656
      ],
      "type": "VEC3"
    },
    {
      "bufferView": 2,
      "byteOffset": 39744,
      "componentType": 5126,
      "count": 152,
      "max": [
        0.84278905391693115,
        0.94908702373504639,
        0.99256700277328491
      ],
      "min": [
        -0.82729172706604004,
        -0.90392839908599854,
        -0.99114006757736206
      ],
      "type": "VEC3"
    },
    {
      "bufferView": 3,
      "byteOffset": 25280,
      "componentType": 5126,
      "count": 152,
      "max": [
        0.99839323759078979,
        0.99773699045181274,
        0.88688629865646362,
        1
      ],
      "min": [
        -0.94664657115936279,
        -0.99999320507049561,
        -0.88013118505477905,
        -1
      ],
      "type": "VEC4"
    },
    {
      "bufferView": 1,
      "byteOffset": 12640,
      "componentType": 5126,
      "count": 152,
      "max": [
        0.99800801277160645,
        0.94537723064422607
      ],
      "min": [
        0.051227796822786331,
        0.31638285517692566
      ],
      "type": "VEC2"
    },
    {
      "bufferView": 0,
      "byteOffset": 22320,
      "componentType": 5125,
      "count": 576,
      "max": [
        151
      ],
      "min": [
        0
      ],
      "type": "SCALAR"
    }
  ],
  "asset": {
    "extras": {
      "author": "guga7020 (https://sketchfab.com/guga7020)",
      "license": "CC-BY-4.0 (http://creativecommons.org/licenses/by/4.0/)",
      "source": "https://sketchfab.com/models/e9cf2919543343dba5502ac7de9f11a1",
      "title": "Shark"
    },
    "generator": "Sketchfab-3.19.7",
    "version": "2.0"
  },
  "bufferViews": [
    {
      "buffer": 0,
      "byteLength": 24624,
      "byteOffset": 0,
      "name": "floatBufferViews",
      "target": 34963
    },
    {
      "buffer": 0,
      "byteLength": 13856,
      "byteOffset": 24624,
      "byteStride": 8,
      "name": "floatBufferViews",
      "target": 34962
    },
    {
      "buffer": 0,
      "byteLength": 41568,
      "byteOffset": 38480,
      "byteStride": 12,
      "name": "floatBufferViews",
      "target": 34962
    },
    {
      "buffer": 0,
      "byteLength": 27712,
      "byteOffset": 80048,
      "byteStride": 16,
      "name": "floatBufferViews",
      "target": 34962
    }
  ],
  "buffers": [
    {
      "byteLength": 107760,
      "uri": "scene.bin"
    }
  ],
  "images": [
    {
      "uri": "textures/Boca_metallicRoughness.png"
    },
    {
      "uri": "textures/Boca_normal.png"
    },
    {
      "uri": "textures/Boca_baseColor.png"
    },
    {
      "uri": "textures/Costas_metallicRoughness.png"
    },
    {
      "uri": "textures/Costas_normal.png"
    },
    {
      "uri": "textures/Costas_baseColor.png"
    },
    {
      "uri": "textures/Barriga_normal.png"
    },
    {
      "uri": "textures/Barriga_metallicRoughness.png"
    },
    {
      "uri": "textures/Barriga_baseColor.png"
    },
    {
      "uri": "textures/BoneBionic_emissive.png"
    },
    {
      "uri": "textures/BoneBionic_metallicRoughness.png"
    },
    {
      "uri": "textures/BoneBionic_baseColor.png"
    },
    {
      "uri": "textures/Teeth_emissive.png"
    },
    {
      "uri": "textures/Teeth_metallicRoughness.png"
    },
    {
      "uri": "textures/Teeth_baseColor.png"
    }
  ],
  "materials": [
    {
      "doubleSided": true,
      "name": "Costas",
      "normalTexture": {
        "index": 4,
        "scale": 1,
        "texCoord": 0
      },
      "occlusionTexture": {
        "index": 3,
        "strength": 1,
        "texCoord": 0
      },
      "pbrMetallicRoughness": {
        "baseColorFactor": [
          1,
          1,
          1,
          1
        ],
        "baseColorTexture": {
          "index": 5,
          "texCoord": 0
        },
        "metallicFactor": 1,
        "metallicRoughnessTexture": {
          "index": 3,
          "texCoord": 0
        },
        "roughnessFactor": 1
      }
    },
    {
      "doubleSided": true,
      "emissiveFactor": [
        0,
        0,
        0
      ],
      "name": "Barriga",
      "normalTexture": {
        "index": 6,
        "scale": 1,
        "texCoord": 0
      },
      "pbrMetallicRoughness": {
        "baseColorFactor": [
          1,
          1,
          1,
          1
        ],
        "baseColorTexture": {
          "index": 8,
          "texCoord": 0
        },
        "metallicFactor": 1,
        "metallicRoughnessTexture": {
          "index": 7,
          "texCoord": 0
        },
        "roughnessFactor": 1
      }
    },
    {
      "doubleSided": true,
      "emissiveFactor": [
        0,
        0,
        0
      ],
      "name": "Boca",
      "normalTexture": {
        "index": 1,
        "scale": 1,
        "texCoord": 0
      },
      "occlusionTexture": {
        "index": 0,
        "strength": 1,
        "texCoord": 0
      },
      "pbrMetallicRoughness": {
        "baseColorFactor": [
          1,
          1,
          1,
          1
        ],
        "baseColorTexture": {
          "index": 2,
          "texCoord": 0
        },
        "metallicFactor": 1,
        "metallicRoughnessTexture": {
          "index": 0,
          "texCoord": 0
        },
        "roughnessFactor": 1
      }
    },
    {
      "doubleSided": true,
      "emissiveFactor": [
        0.0171493902,
        0.0171493902,
        0.0171493902
      ],
      "emissiveTexture": {
        "index": 9,
        "texCoord": 0
      },
      "name": "BoneBionic",
      "occlusionTexture": {
        "index": 10,
        "strength": 1,
        "texCoord": 0
      },
      "pbrMetallicRoughness": {
        "baseColorFactor": [
          1,
          1,
          1,
          1
        ],
        "baseColorTexture": {
          "index": 11,
          "texCoord": 0
        },
        "metallicFactor": 0,
        "roughnessFactor": 0.59999999999999998
      }
    },
    {
      "doubleSided": true,
      "emissiveFactor": [
        0.74885670729999998,
        0.74885670729999998,
        0.74885670729999998
      ],
      "emissiveTexture": {
        "index": 12,
        "texCoord": 0
      },
      "name": "Teeth",
      "occlusionTexture": {
        "index": 13,
        "strength": 1,
        "texCoord": 0
      },
      "pbrMetallicRoughness": {
        "baseColorFactor": [
          1,
          1,
          1,
          1
        ],
        "baseColorTexture": {
          "index": 14,
          "texCoord": 0
        },
        "metallicFactor": 0,
        "roughnessFactor": 0.59999999999999998
      }
    }
  ],
  "meshes": [
    {
      "name": "polySurface1_Costas_0",
      "primitives": [
        {
          "attributes": {
            "NORMAL": 1,
            "POSITION": 0,
            "TANGENT": 2,
            "TEXCOORD_0": 3
          },
          "indices": 4,
          "material": 0,
          "mode": 4
        }
      ]
    },
    {
      "name": "polySurface1_Barriga_0",
      "primitives": [
        {
          "attributes": {
            "NORMAL": 6,
            "POSITION": 5,
            "TANGENT": 7,
            "TEXCOORD_0": 8
          },
          "indices": 9,
          "material": 1,
          "mode": 4
        }
      ]
    },
    {
      "name": "polySurface1_Boca_0",
      "primitives": [
        {
          "attributes": {
            "NORMAL": 11,
            "POSITION": 10,
            "TANGENT": 12,
            "TEXCOORD_0": 13
          },
          "indices": 14,
          "material": 2,
          "mode": 4
        }
      ]
    },
    {
      "name": "TeethMsh6_BoneBionic_0",
      "primitives": [
        {
          "attributes": {
            "NORMAL": 16,
            "POSITION": 15,
            "TANGENT": 17,
            "TEXCOORD_0": 18
          },
          "indices": 19,
          "material": 3,
          "mode": 4
        }
      ]
    },
    {
      "name": "TeethMsh15_Teeth_0",
      "primitives": [
        {
          "attributes": {
            "NORMAL": 21,
            "POSITION": 20,
            "TANGENT": 22,
            "TEXCOORD_0": 23
          },
          "indices": 24,
          "material": 4,
          "mode": 4
        }
      ]
    },
    {
      "name": "TeethMsh_BoneBionic_0",
      "primitives": [
        {
          "attributes": {
            "NORMAL": 26,
            "POSITION": 25,
            "TANGENT": 27,
            "TEXCOORD_0": 28
          },
          "indices": 29,
          "material": 3,
          "mode": 4
        }
      ]
    },
    {
      "name": "TeethMsh_Teeth_0",
      "primitives": [
        {
          "attributes": {
            "NORMAL": 31,
            "POSITION": 30,
            "TANGENT": 32,
            "TEXCOORD_0": 33
          },
          "indices": 34,
          "material": 4,
          "mode": 4
        }
      ]
    }
  ],
  "nodes": [
    {
      "children": [
        1
      ],
      "name": "RootNode (gltf orientation matrix)",
      "rotation": [
        -0.70710678118654746,
        -0,
        -0,
        0.70710678118654757
      ]
    },
    {
      "children": [
        2
      ],
      "name": "RootNode (model correction matrix)"
    },
    {
      "children": [
        3
      ],
      "matrix": [
        1,
        0,
        0,
        0,
        0,
        0,
        1,
        0,
        0,
        -1,
        0,
        0,
        0,
        0,
        0,
        1
      ],
      "name": "bf9b17ab94974cf0aa7520ea2d85e61a.fbx"
    },
    {
      "children": [
        4,
        8,
        10,
        12
      ],
      "name": "RootNode"
    },
    {
      "children": [
        5,
        6,
        7
      ],
      "name": "polySurface1"
    },
    {
      "mesh": 0,
      "name": "polySurface1_Costas_0"
    },
    {
      "mesh": 1,
      "name": "polySurface1_Barriga_0"
    },
    {
      "mesh": 2,
      "name": "polySurface1_Boca_0"
    },
    {
      "children": [
        9
      ],
      "matrix": [
        1,
        0,
        0,
        0,
        0,
        0.99751259793300784,
        -0.070488417239582019,
        0,
        0,
        0.070488417239582019,
        0.99751259793300784,
        0,
        0,
        4.146782398223877,
        -0.5337212085723877,
        1
      ],
      "name": "TeethMsh6"
    },
    {
      "mesh": 3,
      "name": "TeethMsh6_BoneBionic_0"
    },
    {
      "children": [
        11
      ],
      "matrix": [
        1,
        0,
        0,
        0,
        0,
        1.6606911272416309,
        -0.11735138917106838,
        0,
        0,
        0.070488417239582019,
        0.99751259793300784,
        0,
        0,
        7.768247127532959,
        0.28389927744865417,
        1
      ],
      "name": "TeethMsh15"
    },
    {
      "mesh": 4,
      "name": "TeethMsh15_Teeth_0"
    },
    {
      "children": [
        13,
        14
      ],
      "name": "TeethMsh"
    },
    {
      "mesh": 5,
      "name": "TeethMsh_BoneBionic_0"
    },
    {
      "mesh": 6,
      "name": "TeethMsh_Teeth_0"
    }
  ],
  "samplers": [
    {
      "magFilter": 9729,
      "minFilter": 9987,
      "wrapS": 10497,
      "wrapT": 10497
    }
  ],
  "scene": 0,
  "scenes": [
    {
      "name": "OSG_Scene",
      "nodes": [
        0
      ]
    }
  ],
  "textures": [
    {
      "sampler": 0,
      "source": 0
    },
    {
      "sampler": 0,
      "source": 1
    },
    {
      "sampler": 0,
      "source": 2
    },
    {
      "sampler": 0,
      "source": 3
    },
    {
      "sampler": 0,
      "source": 4
    },
    {
      "sampler": 0,
      "source": 5
    },
    {
      "sampler": 0,
      "source": 6
    },
    {
      "sampler": 0,
      "source": 7
    },
    {
      "sampler": 0,
      "source": 8
    },
    {
      "sampler": 0,
      "source": 9
    },
    {
      "sampler": 0,
      "source": 10
    },
    {
      "sampler": 0,
      "source": 11
    },
    {
      "sampler": 0,
      "source": 12
    },
    {
      "sampler": 0,
      "source": 13
    },
    {
      "sampler": 0,
      "source": 14
    }
  ]
}

